<svg version="1" xmlns="http://www.w3.org/2000/svg" width="413.333" height="413.333" viewBox="0 0 310.000000 310.000000"><path d="M0 155v155h310V0H0v155zM194.2 18.1c2.5 1.9 2.9 2.6 2.4 5.3-1.9 10.3-11.5 79.2-19.2 138.1-1.3 10.4-2.7 20.2-3 21.8-.4 1.7-.1 2.7.6 2.7 2.6 0 16.6-6.6 23.3-11 21.1-13.7 31.6-30.5 31.9-51 .1-10.4-2.1-16.1-9.8-25.5-4.7-5.6-4.9-6.2-4-9.3.6-2.3 3.6-5.6 10.2-11.2l9.2-8 4.8.7c2.7.3 5.5 1.3 6.1 2.2 5 6.4 9.1 13.7 11.6 21.1 2.5 7.1 3 10.2 3.1 18.5.2 20.7-6.3 35.2-23.7 53.2-10.5 10.8-23.3 19.9-37.7 26.6-9.5 4.5-23.8 9.7-26.4 9.7-.9 0-1.7 1.5-2 3.8-.8 4.8-2.4 29.8-2.3 33.5.2 2.7-.5 3.1-12.7 8.8-7.1 3.2-13.5 5.9-14.2 5.9-.8 0-2.9-.8-4.8-1.7-2.8-1.3-3.4-2.1-3.1-3.7.5-2.4 6.4-38 6.8-41.1.2-1.9-.5-1.9-16.3-2.2-23.9-.3-36.6-3.5-42.7-10.7-1.4-1.7-3.8-5.6-5.2-8.6-3.9-8.5-3.9-17.2-.1-45.9 3.4-25.7 3.4-31.1.1-34.4-1.8-1.9-2.4-1.9-6.3-.8-2.4.7-7.5 3-11.4 5.1l-7.2 3.8-5.3-4.4c-3-2.4-5.5-4.8-5.7-5.3-.4-1.1 14.4-10.6 24.1-15.4 16.7-8.3 29.6-10.7 38-7.2 10.3 4.3 11.8 15.3 6.3 47.1-3.2 18.5-3.7 24.5-2.5 33.4 2.4 17.2 7.8 21.9 28.6 25.2 4 .6 7.6.9 7.9.5.6-.6 6.8-44.4 11.4-80.2 1.1-8.8 3.1-30.1 4.4-47.4 1.4-17.2 2.8-31.7 3.3-32.2.6-.6 26.7-11.6 28.1-11.8.2-.1 1.7.9 3.4 2z"/></svg>