<?xml version="1.0" standalone="no"?>
<!DOCTYPE svg PUBLIC "-//W3C//DTD SVG 1.1//EN"
  "http://www.w3.org/Graphics/SVG/1.1/DTD/svg11.dtd">
<svg version="1.1" xmlns="http://www.w3.org/2000/svg" xmlns:xlink="http://www.w3.org/1999/xlink" width="3840" height="2160" viewBox="-1040.888888888889 -32 1889.7777777777778 1063" id="ccdiagram"><filter id="grayscale"><feColorMatrix type="matrix" values="0.3333 0.3333 0.3333 0 0 0.3333 0.3333 0.3333 0 0 0.3333 0.3333 0.3333 0 0 0 0 0 1 0"></feColorMatrix></filter><defs><style type="text/css">@import url('https://fonts.googleapis.com/css?family=Open+Sans:400,700|Inconsolata:400');</style></defs><g>0<g pointer-events="auto"><g opacity="1"><g><g><polygon points="-96 100, 96 211, 192 155, 256 155, 736 433, 735 470, 159 785, 96 784, -368 516, -480 581, -480 581, -496 590, -560 590, -576 581, -579 579, -739 468, -736 433, -160 100" fill="#000000" opacity="0.2"></polygon><polygon points="-96 93, 96 204, 192 148, 256 148, 736 426, 735 463, 159 778, 96 777, -368 509, -480 574, -480 574, -496 583, -560 583, -576 574, -579 572, -739 461, -736 426, -160 93" fill="#ffffff" stroke-width="2" stroke="#818181"></polygon><polygon points="-128 111, 96 241, 224 167, 704 444, 128 759, -368 472, -512 555, -528 564, -544 555, -704 444" fill="#e6e7e8" stroke-width="0" stroke="#818181"></polygon></g></g></g><g opacity="1"><g><g><polygon points="192 507, 288 562, 288 599, 160 673, 96 673, 0 618, 0 581, 128 507" fill="#000000" opacity="0.2"></polygon><polygon points="192 500, 288 555, 288 592, 160 666, 96 666, 0 611, 0 574, 128 500" fill="#ffc107" stroke-width="2" stroke="#818181"></polygon><polygon points="160 518, 256 574, 128 648, 32 592" fill="#ffc107" stroke-width="0" stroke="#818181"></polygon></g></g></g><g opacity="1"><g><g><polygon points="-145 165, -81 165, 63 248, -225 414, -401 313" fill="#000000" opacity="0.2"></polygon><polygon points="-145 157, -81 157, 63 241, -225 407, -401 305" fill="#ffffff" stroke-width="0" stroke="#818181"></polygon></g></g></g><g opacity="1"><g><g><polygon points="-400 313, -224 414, -272 442, -304 442, -448 359, -448 340" fill="#000000" opacity="0.2"></polygon><polygon points="-400 305, -224 407, -272 435, -304 435, -448 352, -448 333" fill="#4286c5" stroke-width="0" stroke="#818181"></polygon></g></g></g><g opacity="1"><g><g><polygon points="-112 157, 16 231, -96 296, -224 222" fill="#ffffff" stroke-width="0" stroke="#818181"></polygon></g></g></g><g opacity="1"><g><g><polygon points="-240 231, -112 305, -224 370, -352 296" fill="#ffffff" stroke-width="0" stroke="#818181"></polygon></g></g></g><g opacity="1"><g><g><polygon points="224 192, 592 405, 448 488, 320 414, 224 414, 0 544, -192 433, -96 377" fill="#000000" opacity="0.2"></polygon><polygon points="224 185, 592 398, 448 481, 320 407, 224 407, 0 537, -192 426, -96 370" fill="#ffffff" stroke-width="0" stroke="#818181"></polygon></g></g></g><g opacity="1"><g><g><polygon points="224 211, 368 294, -16 516, -160 433" fill="#000000" opacity="0.2"></polygon><polygon points="224 204, 368 287, -16 509, -160 426" fill="#e6e7e8" stroke-width="0" stroke="#818181"></polygon></g></g></g><g opacity="1"><g><g><polygon points="-192 433, 0 544, -48 572, -80 572, -240 479, -240 461" fill="#000000" opacity="0.2"></polygon><polygon points="-192 426, 0 537, -48 564, -80 564, -240 472, -240 453" fill="#4286c5" stroke-width="0" stroke="#818181"></polygon></g></g></g></g>0<g pointer-events="auto"></g><g></g><g pointer-events="auto"></g><g></g><g pointer-events="auto"><g opacity="1"></g><g opacity="1"></g><g opacity="1"></g><g opacity="1"></g><g opacity="1"></g></g><g pointer-events="none"></g><g pointer-events="auto"><g><g cursor="cell"><line x1="176" y1="416" x2="122" y2="385" stroke="red" stroke-width="8" opacity="0"></line><line x1="176" y1="416" x2="122" y2="385" stroke="#000000" stroke-width="2" stroke-linecap="round"></line><polygon points="112 379, 121 394, 124 386, 138 385, 112 379" stroke-linejoin="round" fill="#000000" stroke="#000000" stroke-width="1"></polygon></g></g><g><g cursor="cell"><line x1="-224" y1="167" x2="-176" y2="194" stroke="red" stroke-width="7" opacity="0"></line><line x1="-224" y1="167" x2="-176" y2="194" stroke="#000000" stroke-width="1" stroke-linecap="round"></line></g></g><g><g cursor="cell"><line x1="-80" y1="398" x2="-214" y2="320" stroke="red" stroke-width="8" opacity="0"></line><line x1="-80" y1="398" x2="-214" y2="320" stroke="#000000" stroke-width="2" stroke-linecap="round"></line><polygon points="-224 315, -215 329, -212 322, -198 320, -224 315" stroke-linejoin="round" fill="#000000" stroke="#000000" stroke-width="1"></polygon></g></g><g><g cursor="cell"><line x1="176" y1="231" x2="176" y2="194" stroke="red" stroke-width="8" opacity="0"></line><line x1="176" y1="231" x2="176" y2="194" stroke="#000000" stroke-width="2" stroke-linecap="round"></line></g></g><g><g cursor="cell"><line x1="-592" y1="379" x2="-512" y2="333" stroke="red" stroke-width="8" opacity="0"></line><line x1="-592" y1="379" x2="-512" y2="333" stroke="#000000" stroke-width="2" stroke-linecap="round"></line></g></g><g><g cursor="cell"><line x1="-352" y1="241" x2="-224" y2="167" stroke="red" stroke-width="7" opacity="0"></line><line x1="-352" y1="241" x2="-224" y2="167" stroke="#000000" stroke-width="1" stroke-linecap="round"></line></g></g><g><g cursor="cell"><line x1="144" y1="250" x2="176" y2="231" stroke="red" stroke-width="8" opacity="0"></line><line x1="144" y1="250" x2="176" y2="231" stroke="#000000" stroke-width="2" stroke-linecap="round"></line></g></g><g><g cursor="cell"><line x1="353" y1="462" x2="416" y2="407" stroke="red" stroke-width="8" opacity="0"></line><line x1="353" y1="462" x2="416" y2="407" stroke="#000000" stroke-width="2" stroke-linecap="round"></line></g></g><g><g cursor="cell"><line x1="-497" y1="379" x2="-512" y2="333" stroke="red" stroke-width="7" opacity="0"></line><line x1="-497" y1="379" x2="-512" y2="333" stroke="#000000" stroke-width="1" stroke-linecap="round"></line></g></g><g><g cursor="cell"><line x1="368" y1="361" x2="304" y2="342" stroke="red" stroke-width="8" opacity="0"></line><line x1="368" y1="361" x2="304" y2="342" stroke="#000000" stroke-width="2" stroke-linecap="round"></line></g></g><g><g cursor="cell"><line x1="250" y1="311" x2="304" y2="342" stroke="red" stroke-width="8" opacity="0"></line><line x1="250" y1="311" x2="304" y2="342" stroke="#000000" stroke-width="2" stroke-linecap="round"></line><polygon points="240 305, 249 320, 252 312, 266 311, 240 305" stroke-linejoin="round" fill="#000000" stroke="#000000" stroke-width="1"></polygon></g></g><g><g cursor="cell"><line x1="16" y1="324" x2="48" y2="324" stroke="red" stroke-width="8" opacity="0"></line><line x1="16" y1="324" x2="48" y2="324" stroke="#000000" stroke-width="2" stroke-linecap="round"></line></g></g><g><g cursor="cell"><line x1="48" y1="324" x2="-70" y2="255" stroke="red" stroke-width="8" opacity="0"></line><line x1="48" y1="324" x2="-70" y2="255" stroke="#000000" stroke-width="2" stroke-linecap="round"></line><polygon points="-80 250, -71 265, -68 257, -54 255, -80 250" stroke-linejoin="round" fill="#000000" stroke="#000000" stroke-width="1"></polygon></g></g><g><g cursor="cell"><line x1="-112" y1="398" x2="-80" y2="398" stroke="red" stroke-width="8" opacity="0"></line><line x1="-112" y1="398" x2="-80" y2="398" stroke="#000000" stroke-width="2" stroke-linecap="round"></line></g></g><g><g cursor="cell"><line x1="48" y1="490" x2="-6" y2="459" stroke="red" stroke-width="8" opacity="0"></line><line x1="48" y1="490" x2="-6" y2="459" stroke="#000000" stroke-width="2" stroke-linecap="round"></line><polygon points="-16 453, -7 468, -4 460, 10 459, -16 453" stroke-linejoin="round" fill="#000000" stroke="#000000" stroke-width="1"></polygon></g></g><g><g cursor="cell"><line x1="208" y1="546" x2="272" y2="509" stroke="red" stroke-width="8" opacity="0"></line><line x1="208" y1="546" x2="272" y2="509" stroke="#000000" stroke-width="2" stroke-linecap="round"></line></g></g><g><g cursor="cell"><line x1="-577" y1="425" x2="-592" y2="379" stroke="red" stroke-width="8" opacity="0"></line><line x1="-577" y1="425" x2="-592" y2="379" stroke="#000000" stroke-width="2" stroke-linecap="round"></line></g></g><g><g cursor="cell"><line x1="176" y1="194" x2="106" y2="154" stroke="red" stroke-width="8" opacity="0"></line><line x1="176" y1="194" x2="106" y2="154" stroke="#000000" stroke-width="2" stroke-linecap="round"></line><polygon points="96 148, 105 163, 108 155, 122 153, 96 148" stroke-linejoin="round" fill="#000000" stroke="#000000" stroke-width="1"></polygon></g></g><g><g cursor="cell"><line x1="-512" y1="333" x2="-352" y2="241" stroke="red" stroke-width="7" opacity="0"></line><line x1="-512" y1="333" x2="-352" y2="241" stroke="#000000" stroke-width="1" stroke-linecap="round"></line></g></g><g><g cursor="cell"><line x1="-352" y1="241" x2="-302" y2="269" stroke="red" stroke-width="7" opacity="0"></line><line x1="-352" y1="241" x2="-302" y2="269" stroke="#000000" stroke-width="1" stroke-linecap="round"></line></g></g><g><g cursor="cell"><line x1="176" y1="416" x2="48" y2="490" stroke="red" stroke-width="8" opacity="0"></line><line x1="176" y1="416" x2="48" y2="490" stroke="#000000" stroke-width="2" stroke-linecap="round"></line></g></g><g><g cursor="cell"><line x1="304" y1="342" x2="176" y2="416" stroke="red" stroke-width="8" opacity="0"></line><line x1="304" y1="342" x2="176" y2="416" stroke="#000000" stroke-width="2" stroke-linecap="round"></line></g></g><g><g cursor="cell"><line x1="278" y1="679" x2="208" y2="638" stroke="red" stroke-width="8" opacity="0"></line><line x1="278" y1="679" x2="208" y2="638" stroke="#000000" stroke-width="2" stroke-linecap="round"></line></g></g></g><g pointer-events="auto"><g opacity="1"><g id="97b481c8-228d-4a13-bcd5-e843356bb996" transform="translate(0 0)"><g><polygon points="64 56, 128 93, 64 130, 0 93" fill="#fff"></polygon><polygon points="0 130, 64 167, 64 130, 0 93" fill="#e6e6e6" stroke="#999"></polygon><polygon points="64 167, 128 130, 128 93, 64 130" fill="#ccc" stroke="#999"></polygon><polygon points="64 56, 0 93, 0 130, 64 167, 128 130, 128 93" fill="none" stroke="#000000" stroke-width="2"></polygon></g></g></g><g opacity="1"><g id="7d19fbf4-856b-457f-b850-bcf007116c57" transform="translate(0 0)"><g><polygon points="432 324, 496 361, 432 398, 368 361" fill="#fff"></polygon><polygon points="368 398, 432 435, 432 398, 368 361" fill="#e6e6e6" stroke="#999"></polygon><polygon points="432 435, 496 398, 496 361, 432 398" fill="#ccc" stroke="#999"></polygon><polygon points="432 324, 368 361, 368 398, 432 435, 496 398, 496 361" fill="none" stroke="#000000" stroke-width="2"></polygon></g></g></g><g opacity="1"><g id="a2660752-f7fc-4215-a010-ac4c56b01ce2" transform="translate(0 0)"><g><polygon points="208 213, 272 250, 208 287, 144 250" fill="#fff"></polygon><polygon points="144 287, 208 324, 208 287, 144 250" fill="#e6e6e6" stroke="#999"></polygon><polygon points="208 324, 272 287, 272 250, 208 287" fill="#ccc" stroke="#999"></polygon><polygon points="208 213, 144 250, 144 287, 208 324, 272 287, 272 250" fill="none" stroke="#000000" stroke-width="2"></polygon></g></g></g><g opacity="1"><g id="94f4464b-ab61-4e22-b7f9-39c90b6cbbae" transform="translate(0 0)"><svg x="-176" y="130" height="138.272" width="127.987" viewBox="0 0 33.863 36.584"><path d="M.132 12.283v14.422l16.653 9.615V21.898l-4.163-7.212L4.296 9.88z" fill="#d2d2d4"></path><path d="M20.984 14.686l8.325-4.807 4.163 2.404v14.422L16.82 36.32V21.898z" fill="#b8b8bb"></path><path d="M4.296 9.88l8.326 4.806h8.326l8.326-4.806V5.07L20.948.265h-8.326L4.296 5.07zM12.853 14.686h8.326l-4.164 7.212z" fill="#ececed"></path><path d="M4.357 4.889v4.808L.193 12.1zM29.274 9.696V4.89l4.162 7.21z" fill="#d2d2d4"></path><path d="M12.706 14.686h8.327l-4.164 7.212z" fill="none" stroke="#83838a" stroke-width=".271"></path><path d="M.132 12.283v14.422l16.653 9.615V21.898l-4.163-7.212L4.296 9.88zM21.05 14.68l8.326-4.806 4.163 2.403V26.7l-16.652 9.615V21.892z" fill="none" stroke="#83838a" stroke-width=".265"></path><path d="M4.296 9.88l8.326 4.806h8.326l8.326-4.806V5.07L20.948.265h-8.326L4.296 5.07z" fill="none" stroke="#83838a" stroke-width=".265"></path><path d="M.293 26.705V12.283L4.457 5.07 12.783.265h8.327l8.326 4.806 4.163 7.212v14.422L16.946 36.32z" fill="none" stroke="#000000" stroke-width=".529"></path><g transform="matrix(.12245 0 0 .0707 332.442 -7.06)"><circle cx="-2577.924" cy="205.604" fill="none" r="58.627" stroke="#83838a" stroke-width="12"></circle><circle cx="-2577.924" cy="205.604" fill="none" r="17.743" stroke="#4286c5" stroke-width="12"></circle><circle cx="-2577.924" cy="205.604" fill="none" r="36.88" stroke="#4286c5" stroke-width="12"></circle><g stroke-linecap="round"><path d="M-2577.643 255.025v25.718" fill="#612828" fill-rule="evenodd" stroke="#4286c5" stroke-width="36"></path><path d="M-2577.643 238.713v42.124" fill="none" stroke="#ececed" stroke-width="12"></path></g></g></svg></g></g><g opacity="1"><g id="f82d2ee6-a10c-4610-8f5c-4fdd1bc2c8bd" transform="translate(0 0)"><g><polygon points="80 287, 144 324, 80 361, 16 324" fill="#fff"></polygon><polygon points="16 361, 80 398, 80 361, 16 324" fill="#e6e6e6" stroke="#999"></polygon><polygon points="80 398, 144 361, 144 324, 80 361" fill="#ccc" stroke="#999"></polygon><polygon points="80 287, 16 324, 16 361, 80 398, 144 361, 144 324" fill="none" stroke="#000000" stroke-width="2"></polygon></g></g></g><g opacity="1"><g id="c2ee6035-861a-44a2-a6e7-adf3e879e7d0" transform="translate(0 0)"><svg x="256" y="425" height="94" width="97" fill-rule="evenodd"><path d="M0 18.6v18.6l32.333 18.6h32.334L97 37.2V18.6L64.667 0H32.333L0 18.6z" fill="#ececed"></path><path d="M64.667 55.8L97 37.2v37.2L64.667 93V55.8z" fill="#b8b8bb"></path><path d="M32.333 55.8h32.334V93H32.333V55.8zM0 37.2v37.2L32.333 93V55.8L0 37.2z" fill="#d2d2d4"></path><g fill="none" stroke="#83838a" stroke-width="1.04"><path d="M.955 37.877L32.333 55.8h32.334l31.378-17.923M32.333 55.8v36.211M64.667 55.8v36.574"></path></g><path d="M97 18.6v55.8L64.667 93H32.333L0 74.4V18.6L32.333 0h32.334L97 18.6zM32.865 1.989L1.989 19.751v53.498l30.876 17.762h31.27l30.876-17.762V19.751L64.135 1.989h-31.27z" fill="#000000"></path><path d="M69.912 15.583c11.818 6.798 11.818 17.836 0 24.635-11.817 6.798-31.007 6.798-42.824 0-11.818-6.799-11.818-17.837 0-24.635 11.817-6.799 31.007-6.799 42.824 0z" fill="#4286c5"></path><path d="M49.584 14.774c1.824 1.049 1.824 2.753 0 3.802-1.824 1.05-4.786 1.05-6.61 0-1.824-1.049-1.824-2.753 0-3.802 1.824-1.05 4.786-1.05 6.61 0zM60.451 21.025c1.825 1.049 1.825 2.753 0 3.803-1.824 1.049-4.786 1.049-6.61 0-1.824-1.05-1.824-2.754 0-3.803s4.786-1.049 6.61 0zM71.319 27.276c1.824 1.05 1.824 2.754 0 3.803-1.825 1.049-4.787 1.049-6.611 0-1.824-1.049-1.824-2.753 0-3.803 1.824-1.049 4.786-1.049 6.611 0zM38.497 33.654c1.824 1.05 1.824 2.754 0 3.803-1.825 1.05-4.787 1.05-6.611 0-1.824-1.049-1.824-2.753 0-3.803 1.824-1.049 4.786-1.049 6.611 0z" fill="#fff"></path><path d="M47.458 15.878c.453.26.393.717-.133 1.02-.526.303-1.32.337-1.773.076-.452-.26-.392-.717.133-1.019.526-.303 1.321-.337 1.773-.077z" fill="#fff"></path><path d="M48.111 15.621c1.012.582 1.012 1.526 0 2.108-1.011.582-2.653.582-3.664 0-1.012-.582-1.012-1.526 0-2.108 1.011-.582 2.653-.582 3.664 0zM58.978 21.872c1.012.582 1.012 1.527 0 2.108-1.011.582-2.653.582-3.664 0-1.012-.581-1.012-1.526 0-2.108 1.011-.581 2.653-.581 3.664 0zM69.846 28.124c1.011.581 1.011 1.526 0 2.108-1.012.582-2.654.582-3.665 0-1.011-.582-1.011-1.527 0-2.108 1.011-.582 2.653-.582 3.665 0z" fill="#4286c5"></path><path d="M37.024 34.502c1.011.582 1.011 1.526 0 2.108-1.012.582-2.654.582-3.665 0-1.011-.582-1.011-1.526 0-2.108 1.011-.582 2.653-.582 3.665 0z" fill="#fff"></path><g fill="#fff"><path d="M52.301 25.172L37.719 33.56l.482.834 14.584-8.388-.484-.834z"></path><path d="M46.993 26.089l6.654-1.146-4.324 5.168c.189-1.691-.757-3.313-2.33-4.022z" stroke="#fff" stroke-width=".36"></path></g><g fill="#fff"><path d="M43.488 19.937l-6.057 13.797.886.387 6.056-13.798-.885-.386z"></path><path d="M39.76 23.812l4.676-4.854-.405 6.716c-.855-1.474-2.582-2.221-4.271-1.862z" stroke="#fff" stroke-width=".36"></path></g><g fill="#fff"><path d="M61.953 30.061l-23.985 3.483.14.955 23.985-3.486-.14-.952z"></path><path d="M56.68 28.957l6.608 1.387-5.936 3.209c.804-1.503.526-3.358-.672-4.596z" stroke="#fff" stroke-width=".36"></path></g><path d="M37.96 33.977l13.12-7.547M37.873 33.927l5.792-13.134M38.037 34.022l22.478-3.281" fill="#fff" stroke="#fff" stroke-width="1.93"></path></svg></g></g><g opacity="1"><g id="779606e2-d873-454f-a7af-5b407119a6f4" transform="translate(0 0)"><svg x="-302" y="173" height="148.981" width="91.956" viewBox="0 0 24.33 39.418"><g transform="translate(240.35 -115.335)"><path d="M-240.082 146.018v4.445l6.973 4.025v-4.445z" fill="#d2d2d4" fill-rule="evenodd"></path><path d="M-233.11 150.043l9.858-.003v4.445l-9.857.003z" fill="#d2d2d4" fill-rule="evenodd"></path><path d="M-223.252 150.04l6.967-4.027v4.445l-6.967 4.028z" fill="#b8b8bb" fill-rule="evenodd"></path><path d="M-223.252 150.04v4.445" fill="none" stroke="#83838a" stroke-width=".267"></path><path d="M302.99-2468.894l-36.732 47.87-59.823 7.876-47.87-36.732-7.875-59.823 36.732-47.87 59.822-7.876 47.87 36.732z" fill="#848586" stroke="#83838a" stroke-width="2.151" transform="matrix(.0995 .07485 -.12957 .05747 -573.282 269.258)"></path><path d="M-240.082 139.12v4.445l6.973 4.025v-4.445z" fill="#d2d2d4" fill-rule="evenodd"></path><path d="M-233.11 143.145l9.858-.003v4.445l-9.857.003z" fill="#d2d2d4" fill-rule="evenodd"></path><path d="M-223.252 143.143l6.967-4.028v4.445l-6.967 4.028z" fill="#b8b8bb" fill-rule="evenodd"></path><path d="M302.99-2468.894l-36.732 47.87-59.823 7.876-47.87-36.732-7.875-59.823 36.732-47.87 59.822-7.876 47.87 36.732z" fill="#848586" stroke="#83838a" stroke-width="2.151" transform="matrix(.0995 .07485 -.12957 .05747 -573.282 262.36)"></path><path d="M-240.082 132.222v4.445l6.973 4.025v-4.445z" fill="#d2d2d4" fill-rule="evenodd"></path><path d="M-233.11 136.247l9.858-.003v4.445l-9.857.003z" fill="#d2d2d4" fill-rule="evenodd"></path><path d="M-223.252 136.245l6.967-4.028v4.445l-6.967 4.028z" fill="#b8b8bb" fill-rule="evenodd"></path><path d="M302.99-2468.894l-36.732 47.87-59.823 7.876-47.87-36.732-7.875-59.823 36.732-47.87 59.822-7.876 47.87 36.732z" fill="#848586" stroke="#83838a" stroke-width="2.151" transform="matrix(.0995 .07485 -.12957 .05747 -573.282 255.462)"></path><path d="M-240.082 125.324v4.445l6.973 4.025v-4.445z" fill="#d2d2d4" fill-rule="evenodd"></path><path d="M-233.11 129.349l9.858-.003v4.445l-9.857.003z" fill="#d2d2d4" fill-rule="evenodd"></path><path d="M-223.252 129.347l6.967-4.028v4.445l-6.967 4.028z" fill="#b8b8bb" fill-rule="evenodd"></path><path d="M-223.252 129.347l-9.857.002-6.973-4.025-.003-5.694 6.967-4.028 9.857-.002 6.973 4.025.003 5.694z" fill="#ececed"></path><path d="M-240.082 125.324l6.964 4.074 9.866-.053 6.967-4.026M-233.118 129.398l.008 4.396M-223.252 129.345v4.445" fill="none" stroke="#83838a" stroke-width=".267"></path><path d="M-240.085 119.63l.003 10.139 6.972 4.025 9.857-.003 6.966-4.027-.002-10.14-6.972-4.025-9.857.003z" fill="none" stroke="#000000" stroke-width=".529"></path><path d="M-223.252 136.242v4.446M-233.11 136.247v4.445" fill="none" stroke="#83838a" stroke-width=".267"></path><path d="M-240.082 132.222v4.445l6.973 4.025 9.857-.003 6.966-4.027.002-4.446-6.968 4.026-9.865.054z" fill="none" stroke="#000000" stroke-width=".529"></path><path d="M-233.11 143.145v4.445M-223.252 143.141v4.446" fill="none" stroke="#83838a" stroke-width=".267"></path><path d="M-240.082 139.12v4.445l6.973 4.025 9.857-.003 6.966-4.026.002-4.446-6.968 4.028-9.857.003z" fill="none" stroke="#000000" stroke-width=".529"></path><path d="M-240.082 146.018v4.445l6.973 4.025 9.857-.003 6.967-4.026v-4.445l-6.967 4.026-9.857.003z" fill="none" stroke="#000000" stroke-width=".529"></path><path d="M-233.11 150.043v4.445" fill="none" stroke="#83838a" stroke-width=".267"></path><circle cx="-9.268" cy="254.217" fill="#4286c5" r="5.832" transform="scale(1.22475 .7071) rotate(45)"></circle><path d="M-227.78 122.24q.75.433 1.536.73.788.298 1.43.362l-.538.31q-.218.127-.73.046-.513-.08-1.181-.34-.669-.26-1.327-.64-.657-.38-1.108-.766-.45-.386-.59-.681-.138-.296.08-.422l.537-.31q.111.37.626.825.516.454 1.265.887zm-2.428 1.403q.749.432 1.536.73.788.297 1.43.361l-.538.31q-.218.127-.73.046-.513-.08-1.182-.34-.668-.26-1.326-.64-.657-.38-1.108-.766-.45-.386-.59-.681-.139-.296.08-.422l.537-.31q.11.37.626.825.516.454 1.265.887zm1.214-.701q.749.432 1.536.73.788.297 1.43.361l-.538.31q-.218.126-.73.046-.513-.08-1.181-.34-.669-.26-1.327-.64-.657-.38-1.108-.766-.45-.386-.59-.681-.138-.296.08-.422l.537-.31q.111.37.626.825.516.454 1.265.887zm3.642-2.103q.657.38 1.108.766.45.386.59.681.139.296-.08.422l-.404.234q-.218.126-.73.045-.513-.08-1.181-.34-.67-.26-1.327-.64-.657-.38-1.108-.766-.45-.386-.59-.681-.139-.296.08-.422l.404-.234q.218-.126.73-.045.513.08 1.182.34.668.26 1.326.64z" fill="#fff"></path></g></svg></g></g><g opacity="1"><g id="a6358b61-d3d7-439a-9c2a-fe552b365789" transform="translate(0 0)"><g><polygon points="-48 361, 16 398, -48 435, -112 398" fill="#fff"></polygon><polygon points="-112 435, -48 472, -48 435, -112 398" fill="#e6e6e6" stroke="#999"></polygon><polygon points="-48 472, 16 435, 16 398, -48 435" fill="#ccc" stroke="#999"></polygon><polygon points="-48 361, -112 398, -112 435, -48 472, 16 435, 16 398" fill="none" stroke="#000000" stroke-width="2"></polygon></g></g></g><g opacity="1"><g id="1d8970c4-b8c5-415a-9118-cff4e65a6b82" transform="translate(0 0)"><g><polygon points="144 509, 208 546, 144 583, 80 546" fill="#8ed1fc"></polygon><polygon points="80 583, 144 620, 144 583, 80 546" fill="#5cbdfb" stroke="#0573b9"></polygon><polygon points="144 620, 208 583, 208 546, 144 583" fill="#2ba9f9" stroke="#0573b9"></polygon><polygon points="144 509, 80 546, 80 583, 144 620, 208 583, 208 546" fill="none" stroke="#000000" stroke-width="2"></polygon></g></g></g><g opacity="1"><g id="10c85364-5f39-4fa2-aee1-f7eec70d4564" transform="translate(0 0)"><svg x="276" y="616" height="95.068" width="63" viewBox="0 0 16.669 25.153"><path d="M0 22.903q0 1.64.865 2.091.865.451 2.297-.376l10.346-5.973q1.433-.827 2.296-2.276.864-1.448.865-3.09 0-.723-.042-1.39-.042-.666-.166-1.394-.124-.727-.313-1.302-.19-.575-.51-1.039-.319-.464-.733-.683-.415-.22-1.013-.147-.598.073-1.32.49-.106.06-.497.58-.39.52-.881 1.165-.492.646-1.28 1.394-.787.75-1.58 1.207-.792.458-1.58.618-.788.161-1.279.083-.491-.079-.882-.147-.39-.069-.497-.007-.722.416-1.32 1.035-.598.619-1.012 1.315-.414.697-.734 1.531t-.509 1.627q-.19.793-.313 1.664-.124.872-.166 1.586Q0 22.178 0 22.903zM3.79 8.51q0 2.173 1.332 2.942 1.331.769 3.213-.318 1.882-1.086 3.214-3.393 1.332-2.307 1.332-4.48 0-2.173-1.332-2.942-1.332-.77-3.214.317T5.121 4.03Q3.789 6.336 3.789 8.51z" fill="#000000"></path></svg></g></g><g opacity="1"><g id="0d0409f7-604a-45aa-b04f-92f840f49857" transform="translate(0 0)"><svg x="-520" y="360" height="70.288" width="112.002" viewBox="0 0 29.634 18.597"><defs></defs><path d="M29.37 9.367L27.29 7.53l-16.63 4.778-8.316-4.8" fill="none" stroke="#841b1b" stroke-width=".267"></path><path d="M14.817 14.732l-2.079 3.6h4.158zM.265 11.108l2.079-3.6-2.08 1.824z" fill="#ce3222" fill-rule="evenodd" stroke="#841b1b" stroke-width=".267"></path><path d="M29.37 11.13l-2.08-3.6 2.08 1.837z" fill="#a2281b" fill-rule="evenodd" stroke="#841b1b" stroke-width=".267"></path><path d="M2.344 7.507l12.473 7.225L27.29 7.53 14.817.306z" fill="#e05243" fill-rule="evenodd" stroke="#841b1b" stroke-width=".267"></path><path d="M.265 11.108l2.079-3.6 12.473 7.224-2.079 3.6z" fill="#ce3222" fill-rule="evenodd" stroke="#841b1b" stroke-width=".265"></path><path d="M16.896 18.332l-2.08-3.6L27.29 7.53l2.08 3.6z" fill="#a2281b" fill-rule="evenodd" stroke="#841b1b" stroke-width=".265"></path><path d="M.265 9.332v1.776l12.473 7.224h4.158l12.473-7.201V9.367L27.29 7.53 14.817.306 2.344 7.507z" fill="none" stroke="#000000" stroke-width=".529"></path><g transform="scale(.23075 .13322) rotate(45 1682.355 -3171.487)"><circle cx="2820.64" cy="255.199" fill="none" r="25.979" stroke="#ffffff" stroke-width="3.448"></circle><path d="M2817.601 243.03h-9.126a3.038 3.038 0 0 0-3.027 3.043l-.018 18.253a3.051 3.051 0 0 0 3.042 3.042h24.337a3.051 3.051 0 0 0 3.042-3.042v-15.211a3.051 3.051 0 0 0-3.042-3.042h-12.169z" fill="#ffffff"></path><g fill-rule="evenodd"><g fill="#e05243"><path d="M2803.23 240.954l-11.691-6.75" stroke="#e05243" stroke-width="9.375"></path><path d="M2757.335 182.443l-11.691-6.75" fill="#ffffff" marker-end="url(#a)" stroke="#ffffff" stroke-linecap="round" stroke-width="2.812" transform="translate(45.895 58.512)"></path></g><path d="M2803.23 269.444l-11.691 6.75" fill="#e05243" stroke="#e05243" stroke-width="9.375"></path><path d="M2757.335 210.932l-11.692 6.75" fill="#ffffff" marker-end="url(#b)" stroke="#ffffff" stroke-linecap="round" stroke-width="2.812" transform="translate(45.895 58.512)"></path></g><path d="M2838.05 240.954l11.692-6.75" fill="none" stroke="#e05243" stroke-width="9.375"></path><path d="M2792.156 182.443l5.519-3.187 6.172-3.563" fill="#ffffff" fill-rule="evenodd" marker-end="url(#c)" stroke="#ffffff" stroke-linecap="round" stroke-width="2.812" transform="translate(45.895 58.512)"></path><g fill="#ffffff" fill-rule="evenodd"><path d="M2838.05 269.444l11.692 6.75" stroke="#e05243" stroke-width="9.375"></path><path d="M2792.156 210.932l11.691 6.75" marker-end="url(#d)" stroke="#ffffff" stroke-linecap="round" stroke-width="2.812" transform="translate(45.895 58.512)"></path></g></g></svg></g></g><g opacity="1"><g id="20047f54-87bb-401f-8f00-0568b1228b9d" transform="translate(0 0)"><svg x="-600" y="406" height="70.288" width="112.002" viewBox="0 0 29.634 18.597"><defs></defs><path d="M29.37 9.367L27.29 7.53l-16.63 4.778-8.316-4.8" fill="none" stroke="#841b1b" stroke-width=".267"></path><path d="M14.817 14.732l-2.079 3.6h4.158zM.265 11.108l2.079-3.6-2.08 1.824z" fill="#ce3222" fill-rule="evenodd" stroke="#841b1b" stroke-width=".267"></path><path d="M29.37 11.13l-2.08-3.6 2.08 1.837z" fill="#a2281b" fill-rule="evenodd" stroke="#841b1b" stroke-width=".267"></path><path d="M2.344 7.507l12.473 7.225L27.29 7.53 14.817.306z" fill="#e05243" fill-rule="evenodd" stroke="#841b1b" stroke-width=".267"></path><path d="M.265 11.108l2.079-3.6 12.473 7.224-2.079 3.6z" fill="#ce3222" fill-rule="evenodd" stroke="#841b1b" stroke-width=".265"></path><path d="M16.896 18.332l-2.08-3.6L27.29 7.53l2.08 3.6z" fill="#a2281b" fill-rule="evenodd" stroke="#841b1b" stroke-width=".265"></path><path d="M.265 9.332v1.776l12.473 7.224h4.158l12.473-7.201V9.367L27.29 7.53 14.817.306 2.344 7.507z" fill="none" stroke="#000000" stroke-width=".529"></path><g transform="scale(.23075 .13322) rotate(45 1682.355 -3171.487)"><circle cx="2820.64" cy="255.199" fill="none" r="25.979" stroke="#ffffff" stroke-width="3.448"></circle><path d="M2817.601 243.03h-9.126a3.038 3.038 0 0 0-3.027 3.043l-.018 18.253a3.051 3.051 0 0 0 3.042 3.042h24.337a3.051 3.051 0 0 0 3.042-3.042v-15.211a3.051 3.051 0 0 0-3.042-3.042h-12.169z" fill="#ffffff"></path><g fill-rule="evenodd"><g fill="#e05243"><path d="M2803.23 240.954l-11.691-6.75" stroke="#e05243" stroke-width="9.375"></path><path d="M2757.335 182.443l-11.691-6.75" fill="#ffffff" marker-end="url(#a)" stroke="#ffffff" stroke-linecap="round" stroke-width="2.812" transform="translate(45.895 58.512)"></path></g><path d="M2803.23 269.444l-11.691 6.75" fill="#e05243" stroke="#e05243" stroke-width="9.375"></path><path d="M2757.335 210.932l-11.692 6.75" fill="#ffffff" marker-end="url(#b)" stroke="#ffffff" stroke-linecap="round" stroke-width="2.812" transform="translate(45.895 58.512)"></path></g><path d="M2838.05 240.954l11.692-6.75" fill="none" stroke="#e05243" stroke-width="9.375"></path><path d="M2792.156 182.443l5.519-3.187 6.172-3.563" fill="#ffffff" fill-rule="evenodd" marker-end="url(#c)" stroke="#ffffff" stroke-linecap="round" stroke-width="2.812" transform="translate(45.895 58.512)"></path><g fill="#ffffff" fill-rule="evenodd"><path d="M2838.05 269.444l11.692 6.75" stroke="#e05243" stroke-width="9.375"></path><path d="M2792.156 210.932l11.691 6.75" marker-end="url(#d)" stroke="#ffffff" stroke-linecap="round" stroke-width="2.812" transform="translate(45.895 58.512)"></path></g></g></svg></g></g></g><g pointer-events="auto"><g opacity="1"><g id="8eaca1e4-6c7d-4296-858b-08d5a391e104" transform="translate(0 0)"><svg x="432" y="361" overflow="visible"><g transform="scale(0.2830000000000002) matrix(0.707 0.409 -0.707 0.409 0 0)"><svg x="-112.5" y="-112.5" overflow="visible"><image xlink:href="https://images.cloudcraft.co/11a3e843-6ad6-4907-881b-c603556b96bd/apollo-server.png" width="225" height="225"></image></svg></g></svg></g></g></g><g pointer-events="auto"><g opacity="1"><g id="817e0f45-aaa1-4218-ac6e-6a18dbecc820" transform="translate(0 0)"><svg x="64" y="93" overflow="visible"><g transform="scale(1.7469281074217107) matrix(0.707 0.409 -0.707 0.409 0 0)"><svg width="41" height="32" x="-20.5" y="-16" style="fill: rgb(8, 96, 137);"><svg xmlns="http://www.w3.org/2000/svg" width="41" height="32" viewBox="0 0 41 32"><path d="M26.679 29.268l-5.268-12.411c-2.089 4.089-4.393 8.357-6.375 12.411-.018.018-.964 0-.964-.018-3.018-7.054-6.179-14.054-9.196-21.125-.732-1.714-3.179-4.5-4.857-4.482 0-.196-.018-.643-.018-.911h10.411v.893c-1.232.071-3.393.857-2.786 2.196 1.411 3.196 6.661 15.446 8.071 18.554.964-1.911 3.714-7.018 4.839-9.179-.893-1.821-3.768-8.607-4.679-10.286-.625-1.143-2.321-1.25-3.589-1.268v-.893l9.161.018v.839c-1.25.036-2.446.5-1.893 1.679 1.214 2.571 1.964 4.375 3.089 6.732.357-.696 2.232-4.464 3.089-6.482.571-1.321-.25-1.839-2.482-1.893.018-.232 0-.661.018-.875 2.857-.018 7.143-.018 7.911-.036v.875c-1.446.054-2.946.821-3.732 2.036l-3.804 7.893c.411 1.036 4.071 9.179 4.446 10.071l7.875-18.161c-.554-1.482-2.339-1.804-3.036-1.821v-.893l8.214.071.018.036-.018.786c-1.804.054-2.893 1.018-3.589 2.589-1.607 3.714-6.643 15.429-9.982 23.054h-.875z"></path></svg></svg></g></svg></g></g></g><g pointer-events="auto"><g opacity="1"><g id="70984f7c-7f8a-4b43-9257-d940bd4a2bfa"><svg x="-192" y="222" overflow="visible"><text stroke="#ffffff" stroke-width="4" font-family="Open Sans" y="30.799999999999997" font-size="20pt" fill="#000000" font-weight="bold" transform="matrix(0.707 0.409 -0.707 0.409 0 0)" xml:space="preserve"><tspan x="8" dy="0">Elastic Search</tspan></text><text font-family="Open Sans" y="30.799999999999997" font-size="20pt" fill="#000000" font-weight="bold" transform="matrix(0.707 0.409 -0.707 0.409 0 0)" xml:space="preserve"><tspan x="8" dy="0">Elastic Search</tspan></text></svg></g></g><g opacity="1"><g id="7d55720c-4770-4197-a765-045fe2217aa9"><svg x="-336" y="287" overflow="visible"><text stroke="#ffffff" stroke-width="4" font-family="Open Sans" y="30.799999999999997" font-size="20pt" fill="#000000" font-weight="bold" transform="matrix(0.707 0.409 -0.707 0.409 0 0)" xml:space="preserve"><tspan x="8" dy="0">MongoDB</tspan></text><text font-family="Open Sans" y="30.799999999999997" font-size="20pt" fill="#000000" font-weight="bold" transform="matrix(0.707 0.409 -0.707 0.409 0 0)" xml:space="preserve"><tspan x="8" dy="0">MongoDB</tspan></text></svg></g></g><g opacity="1"><g id="49abb63e-f3fb-4a8f-afeb-c53870d862fd"><svg x="208" y="287" overflow="visible"><text stroke="#ffffff" stroke-width="4" font-family="Open Sans" y="26.24" font-size="16pt" fill="#000000" font-weight="bold" transform="matrix(0.707, -0.409, 0, 0.816, 0, 0)" xml:space="preserve"><tspan x="8" dy="0">Wiki</tspan></text><text font-family="Open Sans" y="26.24" font-size="16pt" fill="#000000" font-weight="bold" transform="matrix(0.707, -0.409, 0, 0.816, 0, 0)" xml:space="preserve"><tspan x="8" dy="0">Wiki</tspan></text></svg></g></g><g opacity="1"><g id="36456123-04a7-4fba-991c-11352d62b031"><svg x="-64" y="93" overflow="visible"><text stroke="#ffffff" stroke-width="4" font-family="Open Sans" y="30.799999999999997" font-size="20pt" fill="#000000" font-weight="bold" transform="matrix(0.707 0.409 -0.707 0.409 0 0)" xml:space="preserve"><tspan x="8" dy="0">wikipedia.org/api</tspan></text><text font-family="Open Sans" y="30.799999999999997" font-size="20pt" fill="#000000" font-weight="bold" transform="matrix(0.707 0.409 -0.707 0.409 0 0)" xml:space="preserve"><tspan x="8" dy="0">wikipedia.org/api</tspan></text></svg></g></g><g opacity="1"><g id="66585b4e-7ab6-4ea0-bb87-3d9d900b1f43" transform="translate(0 0)"><svg x="-112" y="398" overflow="visible"><text stroke="#ffffff" stroke-width="4" font-family="Open Sans" y="26.24" font-size="16pt" fill="#000000" font-weight="bold" transform="matrix(0.707 -0.409 0.707 0.409 0 0)" xml:space="preserve"><tspan x="8" dy="0">NodeJS</tspan></text><text font-family="Open Sans" y="26.24" font-size="16pt" fill="#000000" font-weight="bold" transform="matrix(0.707 -0.409 0.707 0.409 0 0)" xml:space="preserve"><tspan x="8" dy="0">NodeJS</tspan></text></svg></g></g><g opacity="1"><g id="efab76bd-97f6-4831-a833-e8552c5f1e38"><svg x="80" y="361" overflow="visible"><text stroke="#ffffff" stroke-width="4" font-family="Open Sans" y="26.24" font-size="16pt" fill="#000000" font-weight="bold" transform="matrix(0.707, -0.409, 0, 0.816, 0, 0)" xml:space="preserve"><tspan x="8" dy="0">Search</tspan></text><text font-family="Open Sans" y="26.24" font-size="16pt" fill="#000000" font-weight="bold" transform="matrix(0.707, -0.409, 0, 0.816, 0, 0)" xml:space="preserve"><tspan x="8" dy="0">Search</tspan></text></svg></g></g><g opacity="1"><g id="1a4b165e-e97e-4aab-80d5-651e70102307"><svg x="-48" y="435" overflow="visible"><text stroke="#ffffff" stroke-width="4" font-family="Open Sans" y="26.24" font-size="16pt" fill="#000000" font-weight="bold" transform="matrix(0.707, -0.409, 0, 0.816, 0, 0)" xml:space="preserve"><tspan x="8" dy="0">API</tspan></text><text font-family="Open Sans" y="26.24" font-size="16pt" fill="#000000" font-weight="bold" transform="matrix(0.707, -0.409, 0, 0.816, 0, 0)" xml:space="preserve"><tspan x="8" dy="0">API</tspan></text></svg></g></g><g opacity="1"><g id="d320a22b-3bd1-4a8c-a25c-4ab6213cd275" transform="translate(0 0)"><svg x="16" y="324" overflow="visible"><text stroke="#ffffff" stroke-width="4" font-family="Open Sans" y="26.24" font-size="16pt" fill="#000000" font-weight="bold" transform="matrix(0.707 -0.409 0.707 0.409 0 0)" xml:space="preserve"><tspan x="8" dy="0">NodeJS</tspan></text><text font-family="Open Sans" y="26.24" font-size="16pt" fill="#000000" font-weight="bold" transform="matrix(0.707 -0.409 0.707 0.409 0 0)" xml:space="preserve"><tspan x="8" dy="0">NodeJS</tspan></text></svg></g></g><g opacity="1"><g id="a6a2a279-dbe5-4542-a187-b04213056a21" transform="translate(0 0)"><svg x="144" y="250" overflow="visible"><text stroke="#ffffff" stroke-width="4" font-family="Open Sans" y="26.24" font-size="16pt" fill="#000000" font-weight="bold" transform="matrix(0.707 -0.409 0.707 0.409 0 0)" xml:space="preserve"><tspan x="8" dy="0">NodeJS</tspan></text><text font-family="Open Sans" y="26.24" font-size="16pt" fill="#000000" font-weight="bold" transform="matrix(0.707 -0.409 0.707 0.409 0 0)" xml:space="preserve"><tspan x="8" dy="0">NodeJS</tspan></text></svg></g></g><g opacity="1"><g id="b72353f8-3686-4395-a6fb-29ffbd43e85a"><svg x="416" y="444" overflow="visible"><text stroke="#ffffff" stroke-width="4" font-family="Open Sans" y="30.799999999999997" font-size="20pt" fill="#000000" font-weight="bold" transform="matrix(0.707 -0.409 0.707 0.409 0 0)" xml:space="preserve"><tspan x="8" dy="0">GraphQL</tspan></text><text font-family="Open Sans" y="30.799999999999997" font-size="20pt" fill="#000000" font-weight="bold" transform="matrix(0.707 -0.409 0.707 0.409 0 0)" xml:space="preserve"><tspan x="8" dy="0">GraphQL</tspan></text></svg></g></g><g opacity="1"><g id="94069267-01ed-4b80-aea2-c316250deb5a"><svg x="304" y="527" overflow="visible"><text stroke="#ffffff" stroke-width="4" font-family="Open Sans" y="30.799999999999997" font-size="20pt" fill="#000000" font-weight="bold" transform="matrix(0.707 -0.409 0.707 0.409 0 0)" xml:space="preserve"><tspan x="8" dy="0">NGINX</tspan><tspan x="8" dy="1.1em">Ingress</tspan></text><text font-family="Open Sans" y="30.799999999999997" font-size="20pt" fill="#000000" font-weight="bold" transform="matrix(0.707 -0.409 0.707 0.409 0 0)" xml:space="preserve"><tspan x="8" dy="0">NGINX</tspan><tspan x="8" dy="1.1em">Ingress</tspan></text></svg></g></g><g opacity="1"><g id="d6562218-3578-4ea3-911e-301e5ba05f4d" transform="translate(0 0)"><svg x="80" y="546" overflow="visible"><text stroke="#ffffff" stroke-width="4" font-family="Open Sans" y="26.24" font-size="16pt" fill="#000000" font-weight="bold" transform="matrix(0.707 -0.409 0.707 0.409 0 0)" xml:space="preserve"><tspan x="8" dy="0">NGINX</tspan></text><text font-family="Open Sans" y="26.24" font-size="16pt" fill="#000000" font-weight="bold" transform="matrix(0.707 -0.409 0.707 0.409 0 0)" xml:space="preserve"><tspan x="8" dy="0">NGINX</tspan></text></svg></g></g><g opacity="1"><g id="16471f44-7333-4e30-bf28-a58018bcb53e"><svg x="128" y="629" overflow="visible"><text stroke="#ffffff" stroke-width="4" font-family="Open Sans" y="30.799999999999997" font-size="20pt" fill="#000000" font-weight="bold" transform="matrix(0.707 -0.409 0.707 0.409 0 0)" xml:space="preserve"><tspan x="8" dy="0">WEB APP</tspan></text><text font-family="Open Sans" y="30.799999999999997" font-size="20pt" fill="#000000" font-weight="bold" transform="matrix(0.707 -0.409 0.707 0.409 0 0)" xml:space="preserve"><tspan x="8" dy="0">WEB APP</tspan></text></svg></g></g><g opacity="1"><g id="19cda135-522f-4bb0-a5bf-64648f44ab44"><svg x="-544" y="481" overflow="visible"><text stroke="#ffffff" stroke-width="4" font-family="Open Sans" y="26.24" font-size="16pt" fill="#000000" font-weight="bold" transform="matrix(0.707 -0.409 0.707 0.409 0 0)" xml:space="preserve"><tspan x="8" dy="0">Persistant Storage</tspan></text><text font-family="Open Sans" y="26.24" font-size="16pt" fill="#000000" font-weight="bold" transform="matrix(0.707 -0.409 0.707 0.409 0 0)" xml:space="preserve"><tspan x="8" dy="0">Persistant Storage</tspan></text></svg></g></g><g opacity="1"><g id="613ed86e-006f-4b3e-acd6-1e646701b882" transform="translate(0 0)"><svg x="-192" y="444" overflow="visible"><text stroke="#000000" stroke-width="2" font-family="Open Sans" y="36.5" font-size="25pt" fill="#ffffff" font-weight="bold" transform="matrix(0.707 0.409 -0.707 0.409 0 0)" xml:space="preserve"><tspan x="8" dy="0">SERVICES</tspan></text><text font-family="Open Sans" y="36.5" font-size="25pt" fill="#ffffff" font-weight="bold" transform="matrix(0.707 0.409 -0.707 0.409 0 0)" xml:space="preserve"><tspan x="8" dy="0">SERVICES</tspan></text></svg></g></g><g opacity="1"><g id="fe5df07a-6f7d-4174-bdae-2c5389750e5d" transform="translate(0 0)"><svg x="-400" y="324" overflow="visible"><text stroke="#000000" stroke-width="2" font-family="Open Sans" y="36.5" font-size="25pt" fill="#ffffff" font-weight="bold" transform="matrix(0.707 0.409 -0.707 0.409 0 0)" xml:space="preserve"><tspan x="8" dy="0">DATA</tspan></text><text font-family="Open Sans" y="36.5" font-size="25pt" fill="#ffffff" font-weight="bold" transform="matrix(0.707 0.409 -0.707 0.409 0 0)" xml:space="preserve"><tspan x="8" dy="0">DATA</tspan></text></svg></g></g><g opacity="1"><g id="293c1ecf-0ef3-46d4-8657-5efc9ece126e" transform="translate(0 0)"><svg x="352" y="204" overflow="visible"><text stroke="#ffffff" stroke-width="4" font-family="Open Sans" y="36.5" font-size="25pt" fill="#9e9e9e" font-weight="bold" transform="matrix(0.707 0.409 -0.707 0.409 0 0)" xml:space="preserve"><tspan x="8" dy="0">KUBERNETES CLUSTER</tspan></text><text font-family="Open Sans" y="36.5" font-size="25pt" fill="#9e9e9e" font-weight="bold" transform="matrix(0.707 0.409 -0.707 0.409 0 0)" xml:space="preserve"><tspan x="8" dy="0">KUBERNETES CLUSTER</tspan></text></svg></g></g><g opacity="1"><g id="139fa4fb-9319-4a35-9755-04beea398a04" transform="translate(0 0)"><svg x="-368" y="527" overflow="visible"><text stroke="#ffffff" stroke-width="4" font-family="Open Sans" y="36.5" font-size="25pt" fill="#9e9e9e" font-weight="bold" transform="matrix(0.707 0.409 -0.707 0.409 0 0)" xml:space="preserve"><tspan x="8" dy="0">UNICODE.WIKI</tspan><tspan x="8" dy="1.1em">DEPLOYMENT DIAGRAM</tspan></text><text font-family="Open Sans" y="36.5" font-size="25pt" fill="#9e9e9e" font-weight="bold" transform="matrix(0.707 0.409 -0.707 0.409 0 0)" xml:space="preserve"><tspan x="8" dy="0">UNICODE.WIKI</tspan><tspan x="8" dy="1.1em">DEPLOYMENT DIAGRAM</tspan></text></svg></g></g></g><g></g></g></svg>